<svg width="20" height="21" viewBox="0 0 20 21" fill="none" xmlns="http://www.w3.org/2000/svg">
<path d="M6 16.5C4.9 16.5 4.01 17.4 4.01 18.5C4.01 19.6 4.9 20.5 6 20.5C7.1 20.5 8 19.6 8 18.5C8 17.4 7.1 16.5 6 16.5ZM0 0.5V2.5H2L5.6 10.09L4.25 12.54C4.09 12.82 4 13.15 4 13.5C4 14.6 4.9 15.5 6 15.5H18V13.5H6.42C6.28 13.5 6.17 13.39 6.17 13.25L6.2 13.13L7.1 11.5H14.55C15.3 11.5 15.96 11.09 16.3 10.47L19.88 3.98C19.96 3.84 20 3.67 20 3.5C20 2.95 19.55 2.5 19 2.5H4.21L3.27 0.5H0ZM16 16.5C14.9 16.5 14.01 17.4 14.01 18.5C14.01 19.6 14.9 20.5 16 20.5C17.1 20.5 18 19.6 18 18.5C18 17.4 17.1 16.5 16 16.5Z" fill="white"/>
</svg>
